#!OML:ASF E:\acrobat2\Project_11_07_03\Capture day 1\Session 1\Acrobat.ASF
:FULLY-SPECIFIED
:DEGREES
1187
root 7.55914 27.7433 -29.0036 5.74517 0.71214 -6.09675
lowerback 3.02379 1.63627 -2.00836
upperback 1.75074 2.12338 -1.92574
thorax 0.101334 1.05531 -0.909308
lowerneck 1.84314 0.158441 -1.48778
upperneck -7.70849 0.79361 8.71401
head -2.87309 0.169259 3.11985
rclavicle -2.14687e-014 -1.59028e-015
rhumerus -48.5203 -1.24416 -85.8211
rradius 50.6851
rwrist 1.31152
rhand -5.38989 -15.4123
rfingers 7.12502
rthumb 20.4188 -44.3588
lclavicle -2.14687e-014 -1.59028e-015
lhumerus -32.61 23.0689 57.8419
lradius 65.0231
lwrist 63.1193
lhand -32.449 -5.44488
lfingers 7.12502
lthumb -5.68227 24.4589
rfemur -14.3406 -6.08798 19.9553
rtibia 32.6363
rfoot -18.477 -7.98246
rtoes -11.491
lfemur -19.8915 -1.67301 -11.6747
ltibia 32.8308
lfoot -3.28544 -12.2087
ltoes 32.8865
1188
root 7.5746 27.737 -29.0122 5.77812 0.764021 -6.02868
lowerback 2.92313 1.65315 -1.99254
upperback 1.72163 2.14891 -1.99375
thorax 0.130986 1.06846 -0.985881
lowerneck 1.63122 0.129248 -1.49542
upperneck -7.47543 0.736612 8.73792
head -2.75141 0.150697 3.12434
rclavicle 1.07344e-014 2.06736e-014
rhumerus -48.7329 -1.25467 -85.5627
rradius 50.5344
rwrist 2.16587
rhand -4.98812 -15.1565
rfingers 7.12502
rthumb 20.8048 -44.0611
lclavicle 1.07344e-014 2.06736e-014
lhumerus -32.3239 23.0053 57.9935
lradius 65.1102
lwrist 63.0131
lhand -32.3057 -5.40906
lfingers 7.12502
lthumb -5.54388 24.4984
rfemur -13.9933 -5.77263 20.0236
rtibia 31.9784
rfoot -18.4866 -8.04208
rtoes -11.1931
lfemur -19.8002 -1.81696 -11.48
ltibia 32.5812
lfoot -3.27122 -12.0783
ltoes 32.5251
1189
root 7.59093 27.73 -29.0208 5.80646 0.838477 -5.96712
lowerback 2.82785 1.66192 -1.95008
upperback 1.701 2.16438 -2.04892
thorax 0.166832 1.07669 -1.06385
lowerneck 1.40854 0.10083 -1.50518
upperneck -7.2172 0.677032 8.73946
head -2.61938 0.132404 3.12097
rclavicle -3.18055e-015 9.54166e-015
rhumerus -48.9073 -1.26337 -85.2905
rradius 50.3465
rwrist 2.87327
rhand -4.59629 -14.8806
rfingers 7.12502
rthumb 21.1813 -43.7434
lclavicle -3.18055e-015 9.54166e-015
lhumerus -32.0248 22.9855 58.1765
lradius 65.1662
lwrist 62.9163
lhand -32.1913 -5.38637
lfingers 7.12502
lthumb -5.43341 24.524
rfemur -13.615 -5.48376 20.1174
rtibia 31.2305
rfoot -18.4345 -8.15207
rtoes -11.0013
lfemur -19.6998 -2.01498 -11.2658
ltibia 32.314
lfoot -3.28574 -11.9309
ltoes 32.1633
1190
root 7.60784 27.7227 -29.0293 5.82884 0.934777 -5.91689
lowerback 2.73119 1.65897 -1.8848
upperback 1.69819 2.16532 -2.08223
thorax 0.221664 1.07763 -1.13137
lowerneck 1.17553 0.0783684 -1.53525
upperneck -6.9742 0.624438 8.71953
head -2.49153 0.11855 3.1141
rclavicle -1.63003e-014 -3.18055e-015
rhumerus -49.0211 -1.25956 -85.0092
rradius 50.1222
rwrist 3.38531
rhand -4.24404 -14.6331
rfingers 7.12502
rthumb 21.5196 -43.4577
lclavicle -1.63003e-014 -3.18055e-015
lhumerus -31.7064 23.0268 58.3965
lradius 65.1886
lwrist 62.8219
lhand -32.142 -5.40713
lfingers 7.12502
lthumb -5.38579 24.5044
rfemur -13.2088 -5.22192 20.2473
rtibia 30.4062
rfoot -18.272 -8.3411
rtoes -10.9002
lfemur -19.5939 -2.27199 -11.0232
ltibia 32.0389
lfoot -3.33898 -11.7749
ltoes 31.7853
1191
root 7.62497 27.7153 -29.0381 5.85822 1.03625 -5.87755
lowerback 2.62978 1.64944 -1.7994
upperback 1.70354 2.15822 -2.09652
thorax 0.287462 1.07461 -1.19015
lowerneck 0.952453 0.0621272 -1.57856
upperneck -6.77336 0.581519 8.67189
head -2.38051 0.109231 3.10092
rclavicle -3.18055e-015 3.02153e-014
rhumerus -49.0802 -1.24662 -84.73
rradius 49.8679
rwrist 3.67981
rhand -3.95695 -14.4972
rfingers 7.12502
rthumb 21.7953 -43.2899
lclavicle -3.18055e-015 3.02153e-014
lhumerus -31.3801 23.1038 58.6451
lradius 65.185
lwrist 62.7262
lhand -32.1523 -5.45868
lfingers 7.12502
lthumb -5.39574 24.4526
rfemur -12.8092 -4.97325 20.4207
rtibia 29.5395
rfoot -17.9922 -8.60505
rtoes -10.9996
lfemur -19.4977 -2.57452 -10.7485
ltibia 31.7619
lfoot -3.43649 -11.6126
ltoes 31.3693
1192
root 7.6418 27.7075 -29.0469 5.90944 1.13865 -5.83923
lowerback 2.51939 1.63662 -1.70007
upperback 1.6967 2.14678 -2.10341
thorax 0.34595 1.06959 -1.249
lowerneck 0.771703 0.0507944 -1.62048
upperneck -6.60836 0.547177 8.5998
head -2.28984 0.102784 3.08001
rclavicle 4.37326e-015 7.95139e-015
rhumerus -49.1176 -1.23484 -84.4723
rradius 49.6008
rwrist 3.76638
rhand -3.76637 -14.6122
rfingers 7.12502
rthumb 21.9783 -43.3835
lclavicle 4.37326e-015 7.95139e-015
lhumerus -31.0746 23.1728 58.8975
lradius 65.1662
lwrist 62.6278
lhand -32.204 -5.51352
lfingers 7.12502
lthumb -5.44566 24.3965
rfemur -12.4459 -4.73703 20.6347
rtibia 28.6639
rfoot -17.6447 -8.92941
rtoes -11.5319
lfemur -19.4221 -2.91632 -10.4464
ltibia 31.477
lfoot -3.56859 -11.4528
ltoes 30.9168
